<svg width="14" height="13" viewBox="0 0 14 13" fill="none" xmlns="http://www.w3.org/2000/svg">
<path d="M7.3397 10.861C7.12585 10.7526 6.87415 10.7526 6.6603 10.861L3.91962 12.2501C3.33917 12.5443 2.68562 12.0128 2.84301 11.3747L3.48384 8.77631C3.54511 8.52787 3.48053 8.26482 3.31153 8.07448L1.1961 5.69188C0.774433 5.21696 1.07397 4.4581 1.70244 4.40909L4.65351 4.17899C4.92956 4.15746 5.17219 3.98539 5.28676 3.7299L6.30849 1.45136C6.57835 0.849549 7.42165 0.849548 7.69151 1.45135L8.71324 3.7299C8.82781 3.98539 9.07044 4.15746 9.34649 4.17899L12.2976 4.40909C12.926 4.4581 13.2256 5.21695 12.8039 5.69188L10.6885 8.07448C10.5195 8.26482 10.4549 8.52787 10.5162 8.77631L11.157 11.3747C11.3144 12.0128 10.6608 12.5443 10.0804 12.2501L7.3397 10.861Z" stroke="#626164" stroke-linecap="round" stroke-linejoin="round"/>
</svg>
